<mxfile host="app.diagrams.net" modified="2023-10-12T08:28:10.666Z" agent="Mozilla/5.0 (Windows NT 10.0; Win64; x64) AppleWebKit/537.36 (KHTML, like Gecko) Chrome/117.0.0.0 Safari/537.36" etag="pLzjMT0KKfML-gQx-kGG" version="22.0.4" type="github">
  <diagram name="第 1 页" id="OJvipSVy-bRWvPoi7CQn">
    <mxGraphModel dx="1562" dy="913" grid="1" gridSize="10" guides="1" tooltips="1" connect="1" arrows="1" fold="1" page="1" pageScale="1" pageWidth="827" pageHeight="1169" math="0" shadow="0">
      <root>
        <mxCell id="0" />
        <mxCell id="1" parent="0" />
        <mxCell id="uXL6dBVkwGDoLjeZM05x-1" value="" style="edgeStyle=orthogonalEdgeStyle;rounded=0;orthogonalLoop=1;jettySize=auto;html=1;" parent="1" source="uXL6dBVkwGDoLjeZM05x-2" edge="1">
          <mxGeometry relative="1" as="geometry">
            <mxPoint x="220" y="170" as="targetPoint" />
          </mxGeometry>
        </mxCell>
        <mxCell id="uXL6dBVkwGDoLjeZM05x-2" value="开始" style="rounded=1;whiteSpace=wrap;html=1;fontSize=12;glass=0;strokeWidth=1;shadow=0;" parent="1" vertex="1">
          <mxGeometry x="160" y="80" width="120" height="40" as="geometry" />
        </mxCell>
        <mxCell id="uXL6dBVkwGDoLjeZM05x-8" value="" style="edgeStyle=orthogonalEdgeStyle;rounded=0;orthogonalLoop=1;jettySize=auto;html=1;exitX=0.5;exitY=1;exitDx=0;exitDy=0;" parent="1" source="uXL6dBVkwGDoLjeZM05x-17" target="uXL6dBVkwGDoLjeZM05x-12" edge="1">
          <mxGeometry relative="1" as="geometry">
            <mxPoint x="220" y="370" as="sourcePoint" />
          </mxGeometry>
        </mxCell>
        <mxCell id="uXL6dBVkwGDoLjeZM05x-9" value="结束" style="rounded=1;whiteSpace=wrap;html=1;fontSize=12;glass=0;strokeWidth=1;shadow=0;" parent="1" vertex="1">
          <mxGeometry x="160" y="720" width="120" height="40" as="geometry" />
        </mxCell>
        <mxCell id="uXL6dBVkwGDoLjeZM05x-10" style="edgeStyle=orthogonalEdgeStyle;rounded=0;orthogonalLoop=1;jettySize=auto;html=1;exitX=1;exitY=0.5;exitDx=0;exitDy=0;entryX=1;entryY=0.5;entryDx=0;entryDy=0;" parent="1" source="uXL6dBVkwGDoLjeZM05x-12" target="uXL6dBVkwGDoLjeZM05x-9" edge="1">
          <mxGeometry relative="1" as="geometry">
            <Array as="points">
              <mxPoint x="360" y="520" />
              <mxPoint x="360" y="740" />
            </Array>
            <mxPoint x="300" y="720" as="targetPoint" />
          </mxGeometry>
        </mxCell>
        <mxCell id="uXL6dBVkwGDoLjeZM05x-11" value="" style="edgeStyle=orthogonalEdgeStyle;rounded=0;orthogonalLoop=1;jettySize=auto;html=1;" parent="1" source="uXL6dBVkwGDoLjeZM05x-12" target="uXL6dBVkwGDoLjeZM05x-14" edge="1">
          <mxGeometry relative="1" as="geometry" />
        </mxCell>
        <mxCell id="uXL6dBVkwGDoLjeZM05x-12" value="学生/教师是否已存在" style="rhombus;whiteSpace=wrap;html=1;shadow=0;fontFamily=Helvetica;fontSize=12;align=center;strokeWidth=1;spacing=6;spacingTop=-4;" parent="1" vertex="1">
          <mxGeometry x="170" y="480" width="100" height="80" as="geometry" />
        </mxCell>
        <mxCell id="uXL6dBVkwGDoLjeZM05x-13" value="" style="edgeStyle=orthogonalEdgeStyle;rounded=0;orthogonalLoop=1;jettySize=auto;html=1;" parent="1" source="uXL6dBVkwGDoLjeZM05x-14" target="uXL6dBVkwGDoLjeZM05x-9" edge="1">
          <mxGeometry relative="1" as="geometry" />
        </mxCell>
        <mxCell id="uXL6dBVkwGDoLjeZM05x-14" value="显示教师、学生信息列表" style="rounded=1;whiteSpace=wrap;html=1;fontSize=12;glass=0;strokeWidth=1;shadow=0;" parent="1" vertex="1">
          <mxGeometry x="160" y="600" width="120" height="70" as="geometry" />
        </mxCell>
        <mxCell id="68fBTdtnLNHx_sZh2hWB-7" value="" style="edgeStyle=orthogonalEdgeStyle;rounded=0;orthogonalLoop=1;jettySize=auto;html=1;entryX=0.5;entryY=0;entryDx=0;entryDy=0;" parent="1" source="uXL6dBVkwGDoLjeZM05x-16" target="68fBTdtnLNHx_sZh2hWB-1" edge="1">
          <mxGeometry relative="1" as="geometry">
            <Array as="points">
              <mxPoint x="220" y="260" />
              <mxPoint x="220" y="260" />
            </Array>
          </mxGeometry>
        </mxCell>
        <mxCell id="uXL6dBVkwGDoLjeZM05x-16" value="展示所有学生列表" style="rounded=1;whiteSpace=wrap;html=1;fontSize=12;glass=0;strokeWidth=1;shadow=0;" parent="1" vertex="1">
          <mxGeometry x="160" y="170" width="120" height="50" as="geometry" />
        </mxCell>
        <mxCell id="uXL6dBVkwGDoLjeZM05x-17" value="搜索框输入姓名或学号" style="rounded=1;whiteSpace=wrap;html=1;fontSize=12;glass=0;strokeWidth=1;shadow=0;" parent="1" vertex="1">
          <mxGeometry x="160" y="380" width="120" height="50" as="geometry" />
        </mxCell>
        <mxCell id="uXL6dBVkwGDoLjeZM05x-18" value="是" style="text;html=1;align=center;verticalAlign=middle;resizable=0;points=[];autosize=1;strokeColor=none;fillColor=none;" parent="1" vertex="1">
          <mxGeometry x="210" y="560" width="40" height="30" as="geometry" />
        </mxCell>
        <mxCell id="uXL6dBVkwGDoLjeZM05x-24" value="否" style="text;html=1;align=center;verticalAlign=middle;resizable=0;points=[];autosize=1;strokeColor=none;fillColor=none;" parent="1" vertex="1">
          <mxGeometry x="290" y="490" width="40" height="30" as="geometry" />
        </mxCell>
        <mxCell id="68fBTdtnLNHx_sZh2hWB-2" value="" style="edgeStyle=orthogonalEdgeStyle;rounded=0;orthogonalLoop=1;jettySize=auto;html=1;" parent="1" source="68fBTdtnLNHx_sZh2hWB-1" target="uXL6dBVkwGDoLjeZM05x-17" edge="1">
          <mxGeometry relative="1" as="geometry" />
        </mxCell>
        <mxCell id="68fBTdtnLNHx_sZh2hWB-5" value="" style="edgeStyle=orthogonalEdgeStyle;rounded=0;orthogonalLoop=1;jettySize=auto;html=1;entryX=0;entryY=0.5;entryDx=0;entryDy=0;" parent="1" source="68fBTdtnLNHx_sZh2hWB-1" target="uXL6dBVkwGDoLjeZM05x-9" edge="1">
          <mxGeometry relative="1" as="geometry">
            <mxPoint x="110" y="300" as="targetPoint" />
            <Array as="points">
              <mxPoint x="80" y="300" />
              <mxPoint x="80" y="740" />
            </Array>
          </mxGeometry>
        </mxCell>
        <mxCell id="68fBTdtnLNHx_sZh2hWB-1" value="是否搜索？" style="rhombus;whiteSpace=wrap;html=1;shadow=0;fontFamily=Helvetica;fontSize=12;align=center;strokeWidth=1;spacing=6;spacingTop=-4;" parent="1" vertex="1">
          <mxGeometry x="170" y="260" width="100" height="80" as="geometry" />
        </mxCell>
        <mxCell id="68fBTdtnLNHx_sZh2hWB-3" value="是" style="text;html=1;align=center;verticalAlign=middle;resizable=0;points=[];autosize=1;strokeColor=none;fillColor=none;" parent="1" vertex="1">
          <mxGeometry x="210" y="338" width="40" height="30" as="geometry" />
        </mxCell>
        <mxCell id="68fBTdtnLNHx_sZh2hWB-8" value="否" style="text;html=1;align=center;verticalAlign=middle;resizable=0;points=[];autosize=1;strokeColor=none;fillColor=none;" parent="1" vertex="1">
          <mxGeometry x="100" y="278" width="40" height="30" as="geometry" />
        </mxCell>
      </root>
    </mxGraphModel>
  </diagram>
</mxfile>
